<mxfile host="app.diagrams.net" agent="Mozilla/5.0 (Windows NT 10.0; Win64; x64; rv:142.0) Gecko/20100101 Firefox/142.0" version="28.2.2">
  <diagram name="PÃ¡gina-1" id="puqg3oH-sMbUvkW1BKXA">
    <mxGraphModel dx="951" dy="457" grid="1" gridSize="10" guides="1" tooltips="1" connect="1" arrows="1" fold="1" page="1" pageScale="1" pageWidth="827" pageHeight="1169" math="0" shadow="0">
      <root>
        <mxCell id="0" />
        <mxCell id="1" parent="0" />
        <mxCell id="YxDhwC0NdhxN5tyJjstn-1" value="&lt;div&gt;Usuario del&amp;nbsp;&lt;/div&gt;&lt;div&gt;guante inteligente&lt;/div&gt;" style="shape=umlActor;verticalLabelPosition=bottom;verticalAlign=top;html=1;outlineConnect=0;" vertex="1" parent="1">
          <mxGeometry x="130" y="160" width="30" height="60" as="geometry" />
        </mxCell>
        <mxCell id="YxDhwC0NdhxN5tyJjstn-2" value="" style="rounded=0;whiteSpace=wrap;html=1;" vertex="1" parent="1">
          <mxGeometry x="210" y="140" width="380" height="180" as="geometry" />
        </mxCell>
        <mxCell id="YxDhwC0NdhxN5tyJjstn-7" style="edgeStyle=orthogonalEdgeStyle;rounded=0;orthogonalLoop=1;jettySize=auto;html=1;exitX=1;exitY=0.5;exitDx=0;exitDy=0;dashed=1;" edge="1" parent="1" source="YxDhwC0NdhxN5tyJjstn-3" target="YxDhwC0NdhxN5tyJjstn-4">
          <mxGeometry relative="1" as="geometry" />
        </mxCell>
        <mxCell id="YxDhwC0NdhxN5tyJjstn-11" value="&lt;font style=&quot;font-size: 9px;&quot;&gt;include&lt;/font&gt;" style="edgeLabel;html=1;align=center;verticalAlign=middle;resizable=0;points=[];" vertex="1" connectable="0" parent="YxDhwC0NdhxN5tyJjstn-7">
          <mxGeometry x="-0.2733" y="2" relative="1" as="geometry">
            <mxPoint y="1" as="offset" />
          </mxGeometry>
        </mxCell>
        <mxCell id="YxDhwC0NdhxN5tyJjstn-3" value="Personalizar Gestos" style="rounded=1;whiteSpace=wrap;html=1;arcSize=50;" vertex="1" parent="1">
          <mxGeometry x="240" y="170" width="130" height="40" as="geometry" />
        </mxCell>
        <mxCell id="YxDhwC0NdhxN5tyJjstn-4" value="Capturar Gesto" style="rounded=1;whiteSpace=wrap;html=1;arcSize=50;" vertex="1" parent="1">
          <mxGeometry x="470" y="170" width="110" height="40" as="geometry" />
        </mxCell>
        <mxCell id="YxDhwC0NdhxN5tyJjstn-8" style="rounded=0;orthogonalLoop=1;jettySize=auto;html=1;exitX=0.5;exitY=0;exitDx=0;exitDy=0;entryX=0.5;entryY=1;entryDx=0;entryDy=0;dashed=1;" edge="1" parent="1" source="YxDhwC0NdhxN5tyJjstn-5" target="YxDhwC0NdhxN5tyJjstn-3">
          <mxGeometry relative="1" as="geometry" />
        </mxCell>
        <mxCell id="YxDhwC0NdhxN5tyJjstn-12" value="&lt;font style=&quot;font-size: 9px;&quot;&gt;extend&lt;/font&gt;" style="edgeLabel;html=1;align=center;verticalAlign=middle;resizable=0;points=[];" vertex="1" connectable="0" parent="YxDhwC0NdhxN5tyJjstn-8">
          <mxGeometry x="-0.0046" y="-1" relative="1" as="geometry">
            <mxPoint as="offset" />
          </mxGeometry>
        </mxCell>
        <mxCell id="YxDhwC0NdhxN5tyJjstn-5" value="Sobrescribir Gesto" style="rounded=1;whiteSpace=wrap;html=1;arcSize=50;" vertex="1" parent="1">
          <mxGeometry x="240" y="260" width="120" height="40" as="geometry" />
        </mxCell>
        <mxCell id="YxDhwC0NdhxN5tyJjstn-9" style="rounded=0;orthogonalLoop=1;jettySize=auto;html=1;exitX=0.25;exitY=0;exitDx=0;exitDy=0;entryX=0.75;entryY=1;entryDx=0;entryDy=0;dashed=1;" edge="1" parent="1" source="YxDhwC0NdhxN5tyJjstn-6" target="YxDhwC0NdhxN5tyJjstn-3">
          <mxGeometry relative="1" as="geometry" />
        </mxCell>
        <mxCell id="YxDhwC0NdhxN5tyJjstn-13" value="&lt;font style=&quot;font-size: 9px;&quot;&gt;extend&lt;/font&gt;" style="edgeLabel;html=1;align=center;verticalAlign=middle;resizable=0;points=[];" vertex="1" connectable="0" parent="YxDhwC0NdhxN5tyJjstn-9">
          <mxGeometry x="-0.0302" y="1" relative="1" as="geometry">
            <mxPoint y="1" as="offset" />
          </mxGeometry>
        </mxCell>
        <mxCell id="YxDhwC0NdhxN5tyJjstn-6" value="Reintentar Captura" style="rounded=1;whiteSpace=wrap;html=1;arcSize=50;" vertex="1" parent="1">
          <mxGeometry x="370" y="260" width="120" height="40" as="geometry" />
        </mxCell>
        <mxCell id="YxDhwC0NdhxN5tyJjstn-14" value="" style="endArrow=none;html=1;rounded=0;entryX=0;entryY=0.5;entryDx=0;entryDy=0;" edge="1" parent="1" source="YxDhwC0NdhxN5tyJjstn-1" target="YxDhwC0NdhxN5tyJjstn-3">
          <mxGeometry width="50" height="50" relative="1" as="geometry">
            <mxPoint x="290" y="290" as="sourcePoint" />
            <mxPoint x="340" y="240" as="targetPoint" />
          </mxGeometry>
        </mxCell>
      </root>
    </mxGraphModel>
  </diagram>
</mxfile>
